<svg id="visual" viewBox="0 0 900 600" width="900" height="600" xmlns="http://www.w3.org/2000/svg" xmlns:xlink="http://www.w3.org/1999/xlink" version="1.1"><rect x="0" y="0" width="900" height="600" fill="#383d33"></rect><defs><linearGradient id="grad1_0" x1="33.3%" y1="100%" x2="100%" y2="0%"><stop offset="20%" stop-color="#fbae3c" stop-opacity="1"></stop><stop offset="80%" stop-color="#fbae3c" stop-opacity="1"></stop></linearGradient></defs><defs><linearGradient id="grad1_1" x1="33.3%" y1="100%" x2="100%" y2="0%"><stop offset="20%" stop-color="#fbae3c" stop-opacity="1"></stop><stop offset="80%" stop-color="#d3a137" stop-opacity="1"></stop></linearGradient></defs><defs><linearGradient id="grad1_2" x1="33.3%" y1="100%" x2="100%" y2="0%"><stop offset="20%" stop-color="#b09336" stop-opacity="1"></stop><stop offset="80%" stop-color="#d3a137" stop-opacity="1"></stop></linearGradient></defs><defs><linearGradient id="grad1_3" x1="33.3%" y1="100%" x2="100%" y2="0%"><stop offset="20%" stop-color="#b09336" stop-opacity="1"></stop><stop offset="80%" stop-color="#8f8437" stop-opacity="1"></stop></linearGradient></defs><defs><linearGradient id="grad1_4" x1="33.3%" y1="100%" x2="100%" y2="0%"><stop offset="20%" stop-color="#737338" stop-opacity="1"></stop><stop offset="80%" stop-color="#8f8437" stop-opacity="1"></stop></linearGradient></defs><defs><linearGradient id="grad1_5" x1="33.3%" y1="100%" x2="100%" y2="0%"><stop offset="20%" stop-color="#737338" stop-opacity="1"></stop><stop offset="80%" stop-color="#5b6138" stop-opacity="1"></stop></linearGradient></defs><defs><linearGradient id="grad1_6" x1="33.3%" y1="100%" x2="100%" y2="0%"><stop offset="20%" stop-color="#484f37" stop-opacity="1"></stop><stop offset="80%" stop-color="#5b6138" stop-opacity="1"></stop></linearGradient></defs><defs><linearGradient id="grad1_7" x1="33.3%" y1="100%" x2="100%" y2="0%"><stop offset="20%" stop-color="#484f37" stop-opacity="1"></stop><stop offset="80%" stop-color="#383d33" stop-opacity="1"></stop></linearGradient></defs><defs><linearGradient id="grad2_0" x1="0%" y1="100%" x2="66.7%" y2="0%"><stop offset="20%" stop-color="#fbae3c" stop-opacity="1"></stop><stop offset="80%" stop-color="#fbae3c" stop-opacity="1"></stop></linearGradient></defs><defs><linearGradient id="grad2_1" x1="0%" y1="100%" x2="66.7%" y2="0%"><stop offset="20%" stop-color="#d3a137" stop-opacity="1"></stop><stop offset="80%" stop-color="#fbae3c" stop-opacity="1"></stop></linearGradient></defs><defs><linearGradient id="grad2_2" x1="0%" y1="100%" x2="66.7%" y2="0%"><stop offset="20%" stop-color="#d3a137" stop-opacity="1"></stop><stop offset="80%" stop-color="#b09336" stop-opacity="1"></stop></linearGradient></defs><defs><linearGradient id="grad2_3" x1="0%" y1="100%" x2="66.7%" y2="0%"><stop offset="20%" stop-color="#8f8437" stop-opacity="1"></stop><stop offset="80%" stop-color="#b09336" stop-opacity="1"></stop></linearGradient></defs><defs><linearGradient id="grad2_4" x1="0%" y1="100%" x2="66.7%" y2="0%"><stop offset="20%" stop-color="#8f8437" stop-opacity="1"></stop><stop offset="80%" stop-color="#737338" stop-opacity="1"></stop></linearGradient></defs><defs><linearGradient id="grad2_5" x1="0%" y1="100%" x2="66.7%" y2="0%"><stop offset="20%" stop-color="#5b6138" stop-opacity="1"></stop><stop offset="80%" stop-color="#737338" stop-opacity="1"></stop></linearGradient></defs><defs><linearGradient id="grad2_6" x1="0%" y1="100%" x2="66.7%" y2="0%"><stop offset="20%" stop-color="#5b6138" stop-opacity="1"></stop><stop offset="80%" stop-color="#484f37" stop-opacity="1"></stop></linearGradient></defs><defs><linearGradient id="grad2_7" x1="0%" y1="100%" x2="66.7%" y2="0%"><stop offset="20%" stop-color="#383d33" stop-opacity="1"></stop><stop offset="80%" stop-color="#484f37" stop-opacity="1"></stop></linearGradient></defs><g transform="translate(900, 600)"><path d="M-378.6 0C-369.5 -67.6 -360.3 -135.1 -327.9 -189.3C-295.4 -243.4 -239.5 -284.2 -181 -313.5C-122.5 -342.8 -61.2 -360.7 0 -378.6L0 0Z" fill="#3f4635"></path><path d="M-331.3 0C-323.3 -59.1 -315.3 -118.2 -286.9 -165.6C-258.5 -213 -209.6 -248.7 -158.4 -274.3C-107.2 -300 -53.6 -315.6 0 -331.3L0 0Z" fill="#515838"></path><path d="M-283.9 0C-277.1 -50.7 -270.3 -101.4 -245.9 -142C-221.5 -182.6 -179.7 -213.1 -135.8 -235.1C-91.8 -257.1 -45.9 -270.5 0 -283.9L0 0Z" fill="#676a38"></path><path d="M-236.6 0C-230.9 -42.2 -225.2 -84.5 -204.9 -118.3C-184.6 -152.2 -149.7 -177.6 -113.1 -195.9C-76.5 -214.3 -38.3 -225.4 0 -236.6L0 0Z" fill="#817b38"></path><path d="M-189.3 0C-184.7 -33.8 -180.2 -67.6 -163.9 -94.6C-147.7 -121.7 -119.8 -142.1 -90.5 -156.8C-61.2 -171.4 -30.6 -180.3 0 -189.3L0 0Z" fill="#9f8b37"></path><path d="M-142 0C-138.5 -25.3 -135.1 -50.7 -122.9 -71C-110.8 -91.3 -89.8 -106.6 -67.9 -117.6C-45.9 -128.6 -23 -135.3 0 -142L0 0Z" fill="#c19a36"></path><path d="M-94.6 0C-92.4 -16.9 -90.1 -33.8 -82 -47.3C-73.8 -60.9 -59.9 -71 -45.3 -78.4C-30.6 -85.7 -15.3 -90.2 0 -94.6L0 0Z" fill="#e7a839"></path><path d="M-47.3 0C-46.2 -8.4 -45 -16.9 -41 -23.7C-36.9 -30.4 -29.9 -35.5 -22.6 -39.2C-15.3 -42.9 -7.7 -45.1 0 -47.3L0 0Z" fill="#fbae3c"></path></g><g transform="translate(0, 0)"><path d="M378.6 0C368.5 66 358.5 131.9 327.9 189.3C297.2 246.7 246.1 295.5 188 325.6C129.9 355.7 65 367.2 0 378.6L0 0Z" fill="#3f4635"></path><path d="M331.3 0C322.5 57.7 313.7 115.4 286.9 165.6C260.1 215.8 215.3 258.6 164.5 284.9C113.7 311.3 56.8 321.3 0 331.3L0 0Z" fill="#515838"></path><path d="M283.9 0C276.4 49.5 268.9 98.9 245.9 142C222.9 185 184.6 221.6 141 244.2C97.4 266.8 48.7 275.4 0 283.9L0 0Z" fill="#676a38"></path><path d="M236.6 0C230.3 41.2 224 82.4 204.9 118.3C185.8 154.2 153.8 184.7 117.5 203.5C81.2 222.3 40.6 229.5 0 236.6L0 0Z" fill="#817b38"></path><path d="M189.3 0C184.3 33 179.2 66 163.9 94.6C148.6 123.3 123 147.8 94 162.8C65 177.9 32.5 183.6 0 189.3L0 0Z" fill="#9f8b37"></path><path d="M142 0C138.2 24.7 134.4 49.5 122.9 71C111.5 92.5 92.3 110.8 70.5 122.1C48.7 133.4 24.4 137.7 0 142L0 0Z" fill="#c19a36"></path><path d="M94.6 0C92.1 16.5 89.6 33 82 47.3C74.3 61.7 61.5 73.9 47 81.4C32.5 88.9 16.2 91.8 0 94.6L0 0Z" fill="#e7a839"></path><path d="M47.3 0C46.1 8.2 44.8 16.5 41 23.7C37.2 30.8 30.8 36.9 23.5 40.7C16.2 44.5 8.1 45.9 0 47.3L0 0Z" fill="#fbae3c"></path></g></svg>